<?xml version="1.0" encoding="utf-8"?>
<!-- Generator: Adobe Illustrator 25.0.1, SVG Export Plug-In . SVG Version: 6.00 Build 0)  -->
<svg version="1.1"
	 id="Layer_1" xmlns:cc="http://creativecommons.org/ns#" xmlns:dc="http://purl.org/dc/elements/1.1/" xmlns:inkscape="http://www.inkscape.org/namespaces/inkscape" xmlns:rdf="http://www.w3.org/1999/02/22-rdf-syntax-ns#" xmlns:sodipodi="http://sodipodi.sourceforge.net/DTD/sodipodi-0.dtd" xmlns:svg="http://www.w3.org/2000/svg"
	 xmlns="http://www.w3.org/2000/svg" xmlns:xlink="http://www.w3.org/1999/xlink" x="0px" y="0px" viewBox="0 0 129 42.2"
	 style="enable-background:new 0 0 129 42.2;" xml:space="preserve">
<style type="text/css">
	.st0{fill:#FFFFFF;}
	.st1{font-family:'SegoeUI-Bold';}
	.st2{font-size:30.6667px;}
	.st3{fill:#C92434;}
	.st4{fill:#8F8F8F;}
	.st5{font-family:'TradeGothicLTStd';}
	.st6{font-size:13.3333px;}
	.st7{fill:none;stroke:#C92434;stroke-width:0.9829;stroke-miterlimit:11.1364;}
	.st8{fill:none;stroke:#C92434;stroke-width:0.4914;stroke-miterlimit:11.1364;}
</style>
<sodipodi:namedview  bordercolor="#666666" borderopacity="1" fit-margin-bottom="2" fit-margin-left="2" fit-margin-right="2" fit-margin-top="2" gridtolerance="10" guidetolerance="10" id="namedview75" inkscape:current-layer="Layer_1" inkscape:cx="112.04663" inkscape:cy="24.019387" inkscape:deskcolor="#d1d1d1" inkscape:pagecheckerboard="false" inkscape:pageopacity="0" inkscape:pageshadow="2" inkscape:showpageshadow="2" inkscape:window-height="2068" inkscape:window-maximized="1" inkscape:window-width="3840" inkscape:window-x="-12" inkscape:window-y="-12" inkscape:zoom="38.010961" objecttolerance="10" pagecolor="#ffffff" showgrid="false">
	</sodipodi:namedview>
<text transform="matrix(1 0 0 1 -1.9251 22.7006)" class="st0 st1 st2">py</text>
<text transform="matrix(1 0 0 1 33.5931 22.7006)" class="st3 st1 st2">tree</text>
<text transform="matrix(1 0 0 1 90.7938 22.7006)" class="st0 st1 st2">dl</text>
<text transform="matrix(1 0 0 1 -0.6 42.0604)" class="st4 st5 st6">3DGEO </text>
<text transform="matrix(1 0 0 1 46.4393 42.0604)" class="st0 st5 st6">HEIDELBERG</text>
<g id="g2707" transform="matrix(1.062293,-0.33425739,0.33425739,1.062293,-18.645768,79.078397)">
	<path id="path38" inkscape:connector-curvature="0" class="st7" d="M131.5-12.9c2.5,2.9,6.9,3.2,9.8,0.8c2.9-2.5,3.2-6.9,0.8-9.8
		c-1.7-2-4.4-2.8-6.9-2.2l-0.2,0"/>
	<circle id="circle46" class="st3" cx="137.9" cy="-20.1" r="0.8"/>
	<circle id="circle48" class="st3" cx="135" cy="-24" r="0.8"/>
	<circle id="circle50" class="st3" cx="134" cy="-18.2" r="0.8"/>
	<circle id="circle52" class="st3" cx="135.9" cy="-14.2" r="0.8"/>
	<circle id="circle54" class="st3" cx="131.5" cy="-12.9" r="0.8"/>
	<line id="line58" class="st8" x1="133.9" y1="-18.1" x2="135" y2="-23.9"/>
	<line id="line60" class="st8" x1="134" y1="-18.2" x2="131.5" y2="-12.8"/>
	<line id="line62" class="st8" x1="131.5" y1="-12.9" x2="135.9" y2="-14.2"/>
	<line id="line64" class="st8" x1="137.9" y1="-20.1" x2="134" y2="-18.2"/>
	<line id="line66" class="st8" x1="135" y1="-23.9" x2="137.9" y2="-20.1"/>
	<line id="line68" class="st8" x1="134" y1="-18.1" x2="135.9" y2="-14.2"/>
	<path id="path70" inkscape:connector-curvature="0" class="st3" d="M139.3-10.9c-0.2-0.6-0.6-1.6-0.3-2c0.3-0.4,0.8-0.7,0.8-1.3
		c0-0.6-0.6-1.1-0.1-1.4c0.5-0.4,0.5-1.1,1.7-0.7c1.3,0.4,1.7,0.8,2,0.5s-0.4,1.4-0.4,1.4l-0.5,0.8l-0.5,0.6l-0.7,0.7l-0.7,0.5
		l-0.8,0.5L139.3-10.9z"/>
	<path id="path72" inkscape:connector-curvature="0" class="st3" d="M143.7-17.7c0,0,0-0.1,0-0.1c-0.1-2.4-1.6-4.6-3.7-5.7l0,0
		l-0.1,0.2c-0.1,0.2-0.2,0.3-0.3,0.6c0,0.3,0.1,0.6,0.3,0.9c0.5,0.6,0.8,1.4,1,2.2c0,0.2,0,0.4,0.1,0.6c0.1,0.2,0.3,0.4,0.5,0.5
		c0.4,0.2,0.9,0.3,1.3,0.6c0.1,0.1,0.3,0.2,0.4,0.3C143.3-17.7,143.8-17.5,143.7-17.7"/>
</g>
</svg>
